<svg xmlns="http://www.w3.org/2000/svg" version="1.1" xmlns:xlink="http://www.w3.org/1999/xlink" xmlns:svgjs="http://svgjs.dev/svgjs" width="1000" height="429" viewBox="0 0 1000 429"><g transform="matrix(1,0,0,1,-0.6060546969388838,-0.10268072300729614)"><svg viewBox="0 0 396 170" data-background-color="#ffffff" preserveAspectRatio="xMidYMid meet" height="429" width="1000" xmlns="http://www.w3.org/2000/svg" xmlns:xlink="http://www.w3.org/1999/xlink"><g id="tight-bounds" transform="matrix(1,0,0,1,0.2399976599878073,0.04068933079543058)"><svg viewBox="0 0 395.52 169.91862133840914" height="169.91862133840914" width="395.52"><g><svg viewBox="0 0 789.3869415631214 339.12707527545746" height="169.91862133840914" width="395.52"><g transform="matrix(1,0,0,1,393.8669415631214,111.59505896172618)"><svg viewBox="0 0 395.52000000000004 115.9369573520051" height="115.9369573520051" width="395.52000000000004"><g id="textblocktransform"><svg viewBox="0 0 395.52000000000004 115.9369573520051" height="115.9369573520051" width="395.52000000000004" id="textblock"><g><svg viewBox="0 0 395.52000000000004 115.9369573520051" height="115.9369573520051" width="395.52000000000004"><g transform="matrix(1,0,0,1,0,0)"><svg width="395.52000000000004" viewBox="2.299999952316284 -40.04999923706055 157.08999633789062 46.04999923706055" height="115.9369573520051" data-palette-color="#0023ff"><path d="M7.4-30.8Q5.15-30.8 3.73-32.13 2.3-33.45 2.3-35.4L2.3-35.4Q2.3-37.4 3.73-38.73 5.15-40.05 7.4-40.05L7.4-40.05Q9.6-40.05 11.03-38.73 12.45-37.4 12.45-35.4L12.45-35.4Q12.45-33.45 11.03-32.13 9.6-30.8 7.4-30.8L7.4-30.8ZM3.1-27.9L11.65-27.9 11.65 0 3.1 0 3.1-27.9ZM34.85-28.2Q39.75-28.2 42.67-25.03 45.6-21.85 45.6-16.3L45.6-16.3 45.6 0 37.1 0 37.1-15.15Q37.1-17.95 35.65-19.5 34.2-21.05 31.75-21.05L31.75-21.05Q29.3-21.05 27.85-19.5 26.4-17.95 26.4-15.15L26.4-15.15 26.4 0 17.85 0 17.85-27.9 26.4-27.9 26.4-24.2Q27.7-26.05 29.9-27.13 32.1-28.2 34.85-28.2L34.85-28.2ZM64.05-7.25L67.1-7.25 67.1 0 62.75 0Q58.1 0 55.5-2.27 52.9-4.55 52.9-9.7L52.9-9.7 52.9-20.8 49.5-20.8 49.5-27.9 52.9-27.9 52.9-34.7 61.45-34.7 61.45-27.9 67.05-27.9 67.05-20.8 61.45-20.8 61.45-9.6Q61.45-8.35 62.05-7.8 62.65-7.25 64.05-7.25L64.05-7.25ZM98.14-14.4Q98.14-13.2 97.99-11.9L97.99-11.9 78.64-11.9Q78.84-9.3 80.32-7.93 81.79-6.55 83.94-6.55L83.94-6.55Q87.14-6.55 88.39-9.25L88.39-9.25 97.49-9.25Q96.79-6.5 94.97-4.3 93.14-2.1 90.39-0.85 87.64 0.4 84.24 0.4L84.24 0.4Q80.14 0.4 76.94-1.35 73.74-3.1 71.94-6.35 70.14-9.6 70.14-13.95L70.14-13.95Q70.14-18.3 71.92-21.55 73.69-24.8 76.89-26.55 80.09-28.3 84.24-28.3L84.24-28.3Q88.29-28.3 91.44-26.6 94.59-24.9 96.37-21.75 98.14-18.6 98.14-14.4L98.14-14.4ZM78.69-16.65L89.39-16.65Q89.39-18.85 87.89-20.15 86.39-21.45 84.14-21.45L84.14-21.45Q81.99-21.45 80.52-20.2 79.04-18.95 78.69-16.65L78.69-16.65ZM111.19-23.25Q112.69-25.55 114.94-26.88 117.19-28.2 119.94-28.2L119.94-28.2 119.94-19.15 117.59-19.15Q114.39-19.15 112.79-17.78 111.19-16.4 111.19-12.95L111.19-12.95 111.19 0 102.64 0 102.64-27.9 111.19-27.9 111.19-23.25ZM159.39 6L149.04 6 144.54-0.05Q142.54 0.35 140.64 0.35L140.64 0.35Q135.69 0.35 131.56-1.95 127.44-4.25 125.01-8.38 122.59-12.5 122.59-17.65L122.59-17.65Q122.59-22.8 125.01-26.9 127.44-31 131.56-33.3 135.69-35.6 140.64-35.6L140.64-35.6Q145.59-35.6 149.71-33.3 153.84-31 156.21-26.9 158.59-22.8 158.59-17.65L158.59-17.65Q158.59-13.15 156.76-9.43 154.94-5.7 151.69-3.25L151.69-3.25 159.39 6ZM131.34-17.65Q131.34-13 133.86-10.23 136.39-7.45 140.64-7.45L140.64-7.45Q144.84-7.45 147.36-10.25 149.89-13.05 149.89-17.65L149.89-17.65Q149.89-22.3 147.36-25.08 144.84-27.85 140.64-27.85L140.64-27.85Q136.39-27.85 133.86-25.1 131.34-22.35 131.34-17.65L131.34-17.65Z" opacity="1" transform="matrix(1,0,0,1,0,0)" fill="#0023ff" class="undefined-text-0" data-fill-palette-color="primary" id="text-0"></path></svg></g></svg></g></svg></g></svg></g><g><svg viewBox="0 0 339.12707527545746 339.12707527545746" height="339.12707527545746" width="339.12707527545746"><g><svg></svg></g><g id="icon-0"><svg viewBox="0 0 339.12707527545746 339.12707527545746" height="339.12707527545746" width="339.12707527545746"><g><path d="M0 169.564c0-93.647 75.916-169.564 169.564-169.564 93.647 0 169.564 75.916 169.563 169.564 0 93.647-75.916 169.564-169.563 169.563-93.647 0-169.564-75.916-169.564-169.563zM169.564 328.672c87.873 0 159.108-71.235 159.108-159.108 0-87.873-71.235-159.108-159.108-159.109-87.873 0-159.108 71.235-159.109 159.109 0 87.873 71.235 159.108 159.109 159.108z" data-fill-palette-color="accent" fill="#0023ff" stroke="transparent"></path><ellipse rx="167.86790226135145" ry="167.86790226135145" cx="169.56353763772873" cy="169.56353763772873" fill="#0023ff" stroke="transparent" stroke-width="0" fill-opacity="1" data-fill-palette-color="accent"></ellipse></g><g transform="matrix(1,0,0,1,73.15376953175104,73.15277190784423)"><svg viewBox="0 0 192.81953621195538 192.821531459769" height="192.821531459769" width="192.81953621195538"><g><svg xmlns="http://www.w3.org/2000/svg" xmlns:xlink="http://www.w3.org/1999/xlink" version="1.1" x="0" y="0" viewBox="2.1510000228881836 2.1500015258789062 95.84900665283203 95.8499984741211" enable-background="new 0 0 100 100" xml:space="preserve" height="192.821531459769" width="192.81953621195538" class="icon-s-0" data-fill-palette-color="quaternary" id="s-0"><g fill="#ffffff" data-fill-palette-color="quaternary"><path fill="#ffffff" d="M98 50.075C98 76.543 76.542 98 50.075 98 23.606 98 2.151 76.543 2.151 50.075c0-26.468 21.456-47.925 47.924-47.925C76.542 2.15 98 23.607 98 50.075zM49.797 6.185c-24.373 0-44.133 19.758-44.133 44.131 0 24.375 19.76 44.133 44.133 44.133S93.93 74.691 93.93 50.316C93.93 25.943 74.17 6.185 49.797 6.185z" data-fill-palette-color="quaternary"></path><path fill="#ffffff" d="M90.862 50.438c0 22.613-18.331 40.945-40.944 40.945-22.614 0-40.945-18.332-40.945-40.945 0-22.614 18.332-40.945 40.945-40.945C72.531 9.493 90.862 27.825 90.862 50.438zM21.963 34.746l-8.713 3.712 4.68 8.552-6.778 7.423 8.068 5.97-3.066 9.198 9.681 2.258 1.131 9.683 9.843-1.776 4.679 8.231 8.229-5.811 8.067 5.811 4.843-8.393 9.681 2.259 1.131-10.329 9.844-1.771-3.067-9.521 8.067-5.809-6.454-7.262 4.519-8.875-9.037-3.873 1.129-9.843-10.166-0.162-2.904-9.52-9.197 3.872-6.454-7.1-6.454 7.262-9.197-4.034-3.228 9.52-9.843-0.323L21.963 34.746z" data-fill-palette-color="quaternary"></path><path fill="#ffffff" d="M76.019 60.886l2.098 5.809-6.132 1.13-10.166-7.906-1.291 1.452 8.876 9.519-0.322 5.973-5.971-1.454L57.001 63.82c-0.675 0.37-1.38 0.693-2.111 0.963l4.671 12.562-3.229 4.841-4.355-3.389-1.265-13.12c-0.382 0.031-0.769 0.05-1.156 0.05s-0.77-0.019-1.15-0.047l-0.624 13.278-4.841 3.551-3.066-5.002 4.348-12.723c-0.708-0.261-1.391-0.568-2.047-0.924l-5.852 11.547-5.809 1.292-0.646-5.486 8.913-9.851c-0.566-0.549-1.092-1.14-1.57-1.769l-10.085 8.068-5.809-0.967 1.613-5.648 12.263-5.002h0.001c-0.312-0.77-0.563-1.569-0.748-2.394l-12.646 3.2-4.518-3.388 3.549-4.035h13.253c0.032-0.624 0.105-1.24 0.209-1.843l-0.068-0.092-13.071-2.905-2.42-4.357 5.325-2.582 11.664 5.611c0.264-0.522 0.555-1.027 0.875-1.514L26.158 34.1l-0.484-5.647h5.809l7.906 9.521c0 0 0.21 0.074 0.498 0.165 0.478-0.383 0.978-0.738 1.5-1.063-0.114-0.391-0.222-0.717-0.222-0.717L34.71 26.354l1.453-5.809 5.325 2.098 4.246 12.578c0.531-0.134 1.073-0.24 1.625-0.317l-1.354-13.067 3.712-4.034 3.712 3.872L52.007 34.94c0.646 0.103 1.274 0.246 1.891 0.426l3.565-12.401 5.486-2.743 1.937 5.971-6.779 10.488 1.776 1.614 8.23-9.682h5.81L73.438 34.1l-10.489 7.261 0.161 1.292c0 0-0.006 0.022-0.016 0.058 0.146 0.264 0.288 0.532 0.423 0.805 1.75-0.791 11.856-5.704 11.856-5.704l5.325 2.582c0 0-1.936 4.68-2.42 4.68-0.426 0-10.897 1.985-13.471 2.474 0.126 0.717 0.203 1.451 0.227 2.198l13.403-0.154 3.712 4.197-4.681 3.387-12.85-3.331c-0.186 0.776-0.428 1.532-0.727 2.256L76.019 60.886zM49.879 38.618c-1.157 0-2.098 0.94-2.098 2.098 0 1.159 0.94 2.099 2.098 2.099s2.098-0.939 2.098-2.099C51.977 39.558 51.036 38.618 49.879 38.618zM56.494 41.361c-1.158 0-2.097 0.94-2.097 2.098 0 1.159 0.938 2.099 2.097 2.099 1.159 0 2.099-0.94 2.099-2.099C58.593 42.301 57.653 41.361 56.494 41.361zM59.399 48.138c-1.158 0-2.097 0.941-2.097 2.098 0 1.158 0.938 2.097 2.097 2.097 1.159 0 2.099-0.938 2.099-2.097C61.498 49.079 60.559 48.138 59.399 48.138zM56.655 54.916c-1.157 0-2.098 0.939-2.098 2.097 0 1.16 0.94 2.097 2.098 2.097 1.159 0 2.099-0.938 2.099-2.097C58.754 55.855 57.814 54.916 56.655 54.916zM49.879 57.98c-1.157 0-2.098 0.941-2.098 2.1 0 1.157 0.94 2.097 2.098 2.097s2.098-0.939 2.098-2.097C51.977 58.922 51.036 57.98 49.879 57.98zM43.263 54.916c-1.159 0-2.097 0.939-2.097 2.097 0 1.16 0.938 2.097 2.097 2.097 1.159 0 2.098-0.937 2.098-2.097C45.361 55.855 44.422 54.916 43.263 54.916zM40.197 48.138c-1.159 0-2.097 0.941-2.097 2.098 0 1.158 0.938 2.097 2.097 2.097 1.159 0 2.098-0.938 2.098-2.097C42.295 49.079 41.356 48.138 40.197 48.138zM42.779 41.361c-1.159 0-2.097 0.94-2.097 2.098 0 1.159 0.938 2.099 2.097 2.099s2.097-0.94 2.097-2.099C44.876 42.301 43.938 41.361 42.779 41.361zM49.717 47.494c-1.516 0-2.742 1.227-2.742 2.743 0 1.515 1.227 2.741 2.742 2.741s2.742-1.227 2.742-2.741C52.459 48.721 51.232 47.494 49.717 47.494z" data-fill-palette-color="quaternary"></path></g></svg></g></svg></g></svg></g></svg></g></svg></g><defs></defs></svg><rect width="395.52" height="169.91862133840914" fill="none" stroke="none" visibility="hidden"></rect></g></svg></g></svg>